# xmcd
#
# Track frame offsets:
#	150
#	27279
#	44903
#	62896
#	81064
#	97842
#	113076
#	131154
#	147746
#	163139
#	181694
#	196870
#	214288
#	231153
#	251788
#	270427
#	292919
#	306525
#
# Disc length: 4381 seconds
#
# Revision: 1
# Processed by: cddbd v1.5.2PL0 Copyright (c) Steve Scherf et al.
# Submitted via: audiograbber 1.83.01
#
DISCID=11111b12
DTITLE=Michael Wendler - Jackpot Live
DYEAR=2010
DGENRE=Schlager
TTITLE0=Michael Wendler LIVE - Piloten wie wir
TTITLE1=Michael Wendler LIVE - Freitag Nacht
TTITLE2=Michael Wendler LIVE - Dieser Brief
TTITLE3=Michael Wendler LIVE - Nina
TTITLE4=Michael Wendler LIVE - Ich geh kaputt wie Glas
TTITLE5=Michael Wendler LIVE - Ich bin nur ein Spieler
TTITLE6=Michael Wendler LIVE - Spiel, Satz und Sieg
TTITLE7=Michael Wendler LIVE - Wir aus dem Revier
TTITLE8=Michael Wendler LIVE - Sandmann
TTITLE9=Michael Wendler LIVE - Sturm zieht auf
TTITLE10=Michael Wendler LIVE - Jackpot
TTITLE11=Michael Wendler LIVE - Diese Nacht schreit deinen Namen
TTITLE12=Michael Wendler LIVE - Prinzessin
TTITLE13=Michael Wendler LIVE - I dont now
TTITLE14=Michael Wendler LIVE - Sie liebt den DJ
TTITLE15=Michael Wendler LIVE - Wenn alle Stricke reissen
TTITLE16=Michael Wendler LIVE - Sommerregen
TTITLE17=Michael Wendler LIVE - 180 Grad
EXTD=
EXTT0=
EXTT1=
EXTT2=
EXTT3=
EXTT4=
EXTT5=
EXTT6=
EXTT7=
EXTT8=
EXTT9=
EXTT10=
EXTT11=
EXTT12=
EXTT13=
EXTT14=
EXTT15=
EXTT16=
EXTT17=
PLAYORDER=
